<svg width="7" height="8" viewBox="0 0 7 8" fill="none" xmlns="http://www.w3.org/2000/svg">
<path d="M0.289185 6.0059L0.34091 5.75163C0.237415 5.73058 0.131487 5.77435 0.0730479 5.86233C0.0146087 5.9503 0.0153205 6.06491 0.0748478 6.15215L0.289185 6.0059ZM3.05696 1.16229L3.06378 0.902903C2.95794 0.900121 2.86102 0.961929 2.8189 1.05907C2.77678 1.15622 2.79791 1.26921 2.87229 1.34457L3.05696 1.16229ZM6.43019 4.27604C6.43019 2.43745 4.92774 0.951897 3.06378 0.902903L3.05014 1.42168C4.6464 1.46364 5.91123 2.73206 5.91123 4.27604H6.43019ZM3.05696 7.64927C4.97402 7.64927 6.43019 6.13656 6.43019 4.27604H5.91123C5.91123 5.85552 4.68186 7.13031 3.05696 7.13031V7.64927ZM0.0748478 6.15215C0.701929 7.07117 1.86266 7.64927 3.05696 7.64927V7.13031C2.01705 7.13031 1.02464 6.62337 0.503521 5.85965L0.0748478 6.15215ZM0.237459 6.26018C1.73935 6.5657 3.0265 5.78332 3.66696 4.6704C4.30824 3.55605 4.32084 2.07343 3.24164 0.980017L2.87229 1.34457C3.75921 2.24317 3.7635 3.46219 3.21716 4.41155C2.67 5.36236 1.5902 6.00577 0.34091 5.75163L0.237459 6.26018Z" fill="#F1F1F1"/>
</svg>
